<?xml version="1.0" encoding="UTF-8"?>
<svg xmlns="http://www.w3.org/2000/svg" id="EQ_PR_Fav" role="img" aria-labelledby="EQ_PR_Fav_Title" lang="en" viewBox="0 0 1998 1609">
<title id="EQ_PR_Fav_Title">New Favicon Project</title>
<style>
  :root {
    width: 100%;
    background-color: transparent;
    --EQ_Fav-cls-1: #cfcfcf;
    --EQ_Fav-cls-2: #999999;
    --EQ_Fav-cls-3: #999999;
  }

#EQ_PR_Fav_gr_mskPaths {
    filter: invert(1)
  }
  @media (forced-colors: active) {
  #EQ_PR_Fav_CTO {
      display: initial
    }
  }
  @media (forced-colors: active) and (prefers-color-scheme:light) {
    #EQ_PR_Fav_gr_mskPaths {
      filter: invert(1)
    }
  }
</style>
<defs>
  <mask id="EQ_PR_Fav_ref_msk">
    <use href="#EQ_PR_Fav_gr_mskPaths" x="0" y="0" />
  </mask>
</defs>
<g id="EQ_PR_Fav_gr_mskPaths">
  <path fill="var(--EQ_Fav-cls-1)" d="M1998 1609V0H0V1609H978v0z"/>
  <path style="fill:#FFFFFF; stroke:var(--EQ_Fav-cls-2); stroke-width:20; paint-order:stroke;" d="M700 310v354q0 156-155 156l-575 6v712l2030 0V165H846q-146 1-146 145h0z"/>
  <path style="fill:none; stroke:var(--EQ_Fav-cls-2); stroke-width:37; stroke-linecap:round;" d="M640 1215a119 119 0 11-5-104"/>
  <path fill="var(--EQ_Fav-cls-2)" d="M669 1044v104H565z"/>
  <path fill="#3D3D3D" d="M1256 458c-1 26 13 50 40 50 17 0 32-10 36-27 0 0 15 0 15 0-2 13-8 23-18 31-9 7-21 10-33 10-35 1-56-30-55-64-1-34 20-65 55-65 25 0 47 16 51 41h-15c-3-12-12-21-24-25-10-3-23-2-32 4-15 10-20 26-20 45zm309 41h-1l-43-104h-18v126h14v-96h1l39 96h14l39-96h2v96h14v-126h-18l-43 104zm-88-41c0 23-8 44-27 57-16 10-41 10-57 0-18-13-27-34-27-57 0-24 9-45 27-57 16-10 41-10 57 0 19 12 27 33 27 57zm-14 0c0-19-6-35-21-45-12-7-29-7-41 0-14 10-20 26-20 45 0 19 6 35 20 44 12 8 29 8 41 0 15-9 21-25 21-44zm278-23c0 14-5 27-18 34-6 4-14 6-24 6h-28v46h-15v-126h43c9 0 17 2 24 6 13 7 18 20 18 34zm-18-14c-1-4-4-7-9-9-4-2-9-3-16-3h-27v52h27c12 0 21-3 25-13 4-7 4-19 0-27zm231-26v99h-1l-69-99h-15v126h16v-99h1l68 99h15v-126h-15zm-150 0 46 126h-16l-13-36h-50l-13 36h-16l46-126h16zm13 77-21-57h-1l-20 57h42z"/>
  <path fill="var(--EQ_Fav-cls-3)" d="m1998 1438-769 2a274 274 0 010-548l769-2 0 548zM44 438a100 100 0 01231 0 100 100 0 01-231 0z"/>
  <path fill="#171717" d="M1006 607c-29 0-57-8-81-24l-1-1-1 1c-2 1-4 1-5 1-5 0-9-2-11-6-3-5-3-11 1-15l1-1c3-2 6-4 9-4a13 13 0 0112 13v1l2 1a137 137 0 00156-5l2-2-11-12-2 2a120 120 0 01-147-5 6 6 0 01-3-5c0-1 1-3 2-4l16-16-2-2a92 92 0 01-14-116l2-2-12-12-2 3a109 109 0 006 130c2 2 1 6-1 8l-20 20a6 6 0 01-4 2 6 6 0 01-5-2 150 150 0 01-12-178l1-1-1-2a13 13 0 0112-17c3 0 6 1 8 3l1 1c5 5 5 13 0 17a13 13 0 01-8 4h-2l0 1a137 137 0 004 157l2 2 12-12-1-1a121 121 0 014-148 6 6 0 015-2c2 0 3 1 4 2l16 16 2-2a92 92 0 01117-15l2 2 12-12-3-2a109 109 0 00-130 6 6 6 0 01-4 1c-2 0-3 0-4-2l-21-20a6 6 0 01-1-4 6 6 0 012-5 149 149 0 01178-12l1 1 1 0c2-1 4-1 5-1 5 0 9 2 11 5 3 5 3 11-1 16l-1 0a13 13 0 01-21-8v-1l-1-1a137 137 0 00-157 5l-2 1 12 12 1-1a120 120 0 01148 5 6 6 0 012 4c0 2-1 3-2 5l-45 44-4-3a51 51 0 00-71 14l0 1-1 0-1 3c-12 21-8 47 10 63l6 4a51 51 0 0071-14l0-1 30 27 0 1 0 1a92 92 0 01-123 21l-2-1-12 11 3 2a109 109 0 00130-6 6 6 0 018 1l21 20a6 6 0 011 4 6 6 0 01-2 5 149 149 0 01-97 36v0zM1705 1211c-3 6-12 7-17 2-7-7-2-19 8-19 8 0 13 10 9 17zm-337-18h-1l-20-70h-15l-20 71h-1l-20-71h-15l28 92h14l21-71h1l20 71h14l29-92h-15l-20 70zm138 0h-1l-20-70h-15l-20 71h-1l-20-71h-15l29 92h14l20-71h1l21 71h14l28-92h-15l-20 70zm138 0h-1l-20-70h-15l-20 71h-1l-20-71h-15l29 92h14l20-71h1l21 71h14l28-92h-15l-20 70zm352-56h-1c-5-10-13-16-25-16-12 0-21 6-25 16 0 0-1 0-1 0v-14h-14v92h14v-58c0-12 9-23 21-23 11 0 19 7 19 18 0 0 0 63 0 63h14v-81c-1 1-2 2-2 3zm-241 1c8-5 23-5 30 1 3 3 6 7 7 11h14c-1-6-3-11-6-15-12-15-37-18-53-8-6 5-11 10-14 17-14 30-1 74 37 73 18 1 34-11 36-29 0 0-14 0-14 0-4 16-25 21-37 12-10-7-13-19-13-31 0-12 4-24 13-31zm150 6c13 30 1 73-37 73-27 1-43-22-42-48 0-9 2-18 5-25 7-14 21-23 37-23 16 0 30 9 37 23zm-9 25c0-17-8-35-28-35-6 0-12 2-16 5-9 7-12 19-12 30 0 18 9 36 28 35 20 1 28-17 28-35z"/>
</g>
<g id="EQ_PR_Fav_CTO" display="none" role="none">
  <rect x="0" y="0" width="100%" height="100%" fill="Canvas" />
  <rect x="0" y="0" width="100%" height="100%" fill="CanvasText" mask="url(#EQ_PR_Fav_ref_msk)" />
</g>
</svg>