<svg width="54" height="54" viewBox="0 0 54 54" xmlns="http://www.w3.org/2000/svg"><path fill="#06c" d="M27,5.25C15.01,5.25,5.25,15.01,5.25,27s9.76,21.75,21.75,21.75,21.75-9.76,21.75-21.75S38.99,5.25,27,5.25Zm12.87,35.36c-.94-1.78-2.44-3.35-4.36-4.54-2.44-1.5-5.43-2.32-8.51-2.32s-6.07,.82-8.51,2.32c-1.92,1.19-3.42,2.76-4.36,4.54-3.62-3.41-5.88-8.25-5.88-13.61,0-10.34,8.41-18.75,18.75-18.75s18.75,8.41,18.75,18.75c0,5.36-2.26,10.2-5.88,13.61Zm-4.62-18.11c0,4.55-3.7,8.25-8.25,8.25s-8.25-3.7-8.25-8.25,3.7-8.25,8.25-8.25,8.25,3.7,8.25,8.25Z" /></svg>