<svg width="30" height="30" viewBox="0 0 30 30" fill="none" xmlns="http://www.w3.org/2000/svg">
<g clip-path="url(#clip0_787_6496)">
<path d="M0 15C0 23.2969 6.70312 30 15 30C23.2969 30 30 23.2969 30 15C30 6.70312 23.2969 0 15 0C6.70312 0 0 6.70312 0 15ZM12.0938 20.625H9.5625V12.4688H12.0938V20.625ZM10.8281 11.3906C10.0312 11.3906 9.375 10.7344 9.375 9.9375C9.375 9.14062 10.0312 8.48438 10.8281 8.48438C11.625 8.48438 12.2812 9.14062 12.2812 9.9375C12.2812 10.7344 11.625 11.3906 10.8281 11.3906ZM21.5625 20.625H19.0312V16.6875C19.0312 15.75 19.0312 14.5312 17.7188 14.5312C16.4062 14.5312 16.2188 15.5625 16.2188 16.6406V20.625H13.6875V12.4688H16.125V13.5938H16.1719C16.5 12.9375 17.3438 12.2812 18.5625 12.2812C21.1406 12.2812 21.6094 13.9688 21.6094 16.1719L21.5625 20.625Z" fill="#0066CC"/>
</g>
<defs>
<clipPath id="clip0_787_6496">
<rect width="30" height="30" fill="white"/>
</clipPath>
</defs>
</svg>
