<svg width="24" height="24" viewBox="0 0 24 24" fill="none" xmlns="http://www.w3.org/2000/svg">
<g id="Icon/spinner/in progress" clip-path="url(#clip0_42_850)">
<path id="Subtract" fill-rule="evenodd" clip-rule="evenodd" d="M12 20C16.4183 20 20 16.4183 20 12C20 7.58172 16.4183 4 12 4C7.58172 4 4 7.58172 4 12C4 16.4183 7.58172 20 12 20ZM12 18C15.3137 18 18 15.3137 18 12C18 8.68629 15.3137 6 12 6C8.68629 6 6 8.68629 6 12C6 15.3137 8.68629 18 12 18Z" fill="#666666"/>
<path id="Subtract_2" fill-rule="evenodd" clip-rule="evenodd" d="M20.0001 12C20.0001 16.4183 16.4184 20 12.0001 20C9.79098 20 7.79098 19.1046 6.34326 17.6569L7.75748 16.2426C8.84326 17.3284 10.3433 18 12.0001 18C15.3138 18 18.0001 15.3137 18.0001 12C18.0001 8.68629 15.3138 6 12.0001 6V4C16.4184 4 20.0001 7.58172 20.0001 12Z" fill="#00A747"/>
</g>
<defs>
<clipPath id="clip0_42_850">
<rect width="24" height="24" fill="white"/>
</clipPath>
</defs>
</svg>
