<svg width="30" height="30" viewBox="0 0 30 30" fill="none" xmlns="http://www.w3.org/2000/svg">
<g clip-path="url(#clip0_787_6492)">
<path d="M15 0C6.70312 0 0 6.70312 0 15C0 23.2969 6.70312 30 15 30C23.2969 30 30 23.2969 30 15C30 6.70312 23.2969 0 15 0ZM22.4531 10.3594C22.2656 10.6875 22.0312 10.9219 21.7969 11.2031C21.5625 11.4844 21.2812 11.7188 21 11.9531V12.3281C21 16.4062 17.9062 21.0938 12.2344 21.0938C10.5 21.0938 8.85938 20.625 7.5 19.7344C7.73438 19.7812 8.01562 19.7812 8.25 19.7812C9.70312 19.7812 11.0156 19.3125 12.0938 18.4688C10.7344 18.4219 9.60938 17.5312 9.23438 16.3125C9.42188 16.3594 9.60938 16.3594 9.79688 16.3594C10.0781 16.3594 10.3125 16.3125 10.5938 16.2656C9.1875 15.9844 8.10938 14.7656 8.10938 13.2656V13.2188C8.53125 13.4531 9 13.5938 9.51562 13.5938C8.67188 13.0312 8.15625 12.0938 8.15625 11.0156C8.15625 10.4531 8.29688 9.9375 8.57812 9.46875C10.0781 11.3438 12.375 12.5625 14.9062 12.7031C14.8594 12.4688 14.8125 12.2344 14.8125 12V11.6719C14.8594 11.0625 15.0938 10.5 15.4688 10.0312C15.4688 10.0312 15.4688 10.0312 15.4688 9.98438L15.6094 9.84375C15.6562 9.79688 15.6562 9.79688 15.7031 9.75C15.75 9.70312 15.75 9.70312 15.7969 9.65625L15.9375 9.51562C15.9375 9.51562 15.9375 9.51562 15.9844 9.51562C16.4531 9.14062 16.9688 8.90625 17.5781 8.85938H17.9062C18.7969 8.85938 19.5938 9.23438 20.1562 9.84375C20.8594 9.70312 21.4688 9.46875 22.0781 9.09375C22.0781 9.09375 22.0781 9.09375 22.0781 9.14062C22.0781 9.14062 22.125 9.14062 22.125 9.09375C21.8906 9.79688 21.4219 10.4062 20.7656 10.7812C20.8125 10.7812 20.8594 10.7812 20.8594 10.7812C21.1875 10.7344 21.5625 10.6406 21.8906 10.5469C22.0781 10.5 22.2656 10.4062 22.4531 10.3594C22.4531 10.3125 22.4531 10.3125 22.4531 10.3594C22.5 10.3594 22.5 10.3125 22.4531 10.3594C22.5 10.3594 22.5 10.3594 22.4531 10.3594Z" fill="#0066CC"/>
</g>
<defs>
<clipPath id="clip0_787_6492">
<rect width="30" height="30" fill="white"/>
</clipPath>
</defs>
</svg>
