<svg xmlns="http://www.w3.org/2000/svg" width="97" height="43" viewBox="0 0 97 43" fill="none">
  <g clip-path="url(#clip0_792_9207)">
    <path d="M75.5 0H21.5C9.62588 0 0 9.62588 0 21.5C0 33.3741 9.62588 43 21.5 43H75.5C87.3741 43 97 33.3741 97 21.5C97 9.62588 87.3741 0 75.5 0Z" fill="url(#paint0_linear_792_9207)"/>
    <path opacity="0.5" d="M49.56 35.97C49.803 35.97 50 35.773 50 35.53C50 35.287 49.803 35.09 49.56 35.09C49.317 35.09 49.12 35.287 49.12 35.53C49.12 35.773 49.317 35.97 49.56 35.97Z" fill="#E9F7FF"/>
    <path opacity="0.5" d="M79.97 37.29C80.0749 37.29 80.16 37.2049 80.16 37.1C80.16 36.9951 80.0749 36.91 79.97 36.91C79.8651 36.91 79.78 36.9951 79.78 37.1C79.78 37.2049 79.8651 37.29 79.97 37.29Z" fill="#E9F7FF"/>
    <path d="M88.45 22.69C88.9084 22.69 89.28 22.3184 89.28 21.86C89.28 21.4016 88.9084 21.03 88.45 21.03C87.9916 21.03 87.62 21.4016 87.62 21.86C87.62 22.3184 87.9916 22.69 88.45 22.69Z" fill="#E9F7FF"/>
    <path d="M62.1 8.8C62.4424 8.8 62.72 8.52241 62.72 8.18C62.72 7.83758 62.4424 7.56 62.1 7.56C61.7576 7.56 61.48 7.83758 61.48 8.18C61.48 8.52241 61.7576 8.8 62.1 8.8Z" fill="#E9F7FF"/>
    <path d="M55.69 12.62C55.9938 12.62 56.24 12.3737 56.24 12.07C56.24 11.7662 55.9938 11.52 55.69 11.52C55.3862 11.52 55.14 11.7662 55.14 12.07C55.14 12.3737 55.3862 12.62 55.69 12.62Z" fill="#E9F7FF"/>
    <path d="M28.5 32.07C19.98 29.87 14.89 21.07 17.13 12.41C17.66 10.36 18.56 8.51001 19.72 6.90001C20 6.51001 19.67 5.98001 19.19 6.05001C12.97 6.95001 7.57 11.54 5.88 18.1C3.65 26.76 8.74 35.57 17.25 37.76C22.89 39.21 28.6 37.4 32.47 33.49C32.81 33.15 32.58 32.57 32.1 32.56C30.91 32.54 29.7 32.38 28.49 32.07H28.5Z" fill="#EFEFEF"/>
    <path d="M43.09 15.88H37.43" stroke="#E9F7FF" stroke-width="1.45" stroke-miterlimit="10" stroke-linecap="round"/>
    <path d="M40.26 13.05V18.7" stroke="#E9F7FF" stroke-width="1.45" stroke-miterlimit="10" stroke-linecap="round"/>
    <path d="M60.08 21.65H56.59" stroke="#E9F7FF" stroke-width="0.89" stroke-miterlimit="10" stroke-linecap="round"/>
    <path d="M58.34 19.9V23.4" stroke="#E9F7FF" stroke-width="0.89" stroke-miterlimit="10" stroke-linecap="round"/>
    <path d="M84.48 9.86002H81.14" stroke="#E9F7FF" stroke-width="0.85" stroke-miterlimit="10" stroke-linecap="round"/>
    <path d="M82.81 8.19V11.52" stroke="#E9F7FF" stroke-width="0.85" stroke-miterlimit="10" stroke-linecap="round"/>
    <g opacity="0.5">
      <path d="M69.04 29.91H67.23" stroke="#E9F7FF" stroke-width="0.46" stroke-miterlimit="10" stroke-linecap="round"/>
      <path d="M68.14 29.01V30.82" stroke="#E9F7FF" stroke-width="0.46" stroke-miterlimit="10" stroke-linecap="round"/>
    </g>
  </g>
  <defs>
    <linearGradient id="paint0_linear_792_9207" x1="48.5" y1="43" x2="48.5" y2="0" gradientUnits="userSpaceOnUse">
      <stop stop-color="#0066CC"/>
      <stop offset="0.08" stop-color="#0058B0"/>
      <stop offset="0.26" stop-color="#003D7B"/>
      <stop offset="0.43" stop-color="#00274F"/>
      <stop offset="0.59" stop-color="#00162C"/>
      <stop offset="0.74" stop-color="#000A14"/>
      <stop offset="0.88" stop-color="#000205"/>
      <stop offset="1"/>
    </linearGradient>
    <clipPath id="clip0_792_9207">
      <rect width="97" height="43" fill="white"/>
    </clipPath>
  </defs>
</svg>