<svg width="97" height="43" viewBox="0 0 97 43" fill="none" xmlns="http://www.w3.org/2000/svg">
<g clip-path="url(#clip0_621_12539)">
<path d="M75.5 0H21.5C9.62588 0 0 9.62588 0 21.5C0 33.3741 9.62588 43 21.5 43H75.5C87.3741 43 97 33.3741 97 21.5C97 9.62588 87.3741 0 75.5 0Z" fill="url(#paint0_linear_621_12539)"/>
<path d="M75.0699 29.75C79.6263 29.75 83.3199 26.0563 83.3199 21.5C83.3199 16.9437 79.6263 13.25 75.0699 13.25C70.5136 13.25 66.8199 16.9437 66.8199 21.5C66.8199 26.0563 70.5136 29.75 75.0699 29.75Z" fill="#FFBC00"/>
<path d="M75.0699 6.37V9.12" stroke="#FFCC33" stroke-width="2.75" stroke-miterlimit="10" stroke-linecap="round"/>
<path d="M75.0699 33.88V36.63" stroke="#FFCC33" stroke-width="2.75" stroke-miterlimit="10" stroke-linecap="round"/>
<path d="M64.37 10.8L66.32 12.75" stroke="#FFCC33" stroke-width="2.75" stroke-miterlimit="10" stroke-linecap="round"/>
<path d="M83.8199 30.25L85.7699 32.2" stroke="#FFCC33" stroke-width="2.75" stroke-miterlimit="10" stroke-linecap="round"/>
<path d="M59.9399 21.5H62.6899" stroke="#FFCC33" stroke-width="2.75" stroke-miterlimit="10" stroke-linecap="round"/>
<path d="M87.45 21.5H90.2" stroke="#FFCC33" stroke-width="2.75" stroke-miterlimit="10" stroke-linecap="round"/>
<path d="M64.37 32.2L66.32 30.25" stroke="#FFCC33" stroke-width="2.75" stroke-miterlimit="10" stroke-linecap="round"/>
<path d="M83.8199 12.75L85.7699 10.8" stroke="#FFCC33" stroke-width="2.75" stroke-miterlimit="10" stroke-linecap="round"/>
<path d="M36.42 18.99C36.42 16.27 34.21 14.06 31.49 14.06C31.11 14.06 30.74 14.11 30.39 14.19C30.16 11.32 27.76 9.04999 24.83 9.04999C22.7 9.04999 20.85 10.24 19.91 11.99C19.44 11.73 18.9 11.58 18.33 11.58C16.52 11.58 15.06 13.05 15.06 14.85C15.06 14.95 15.06 15.04 15.07 15.14C13.28 15.74 11.99 17.42 11.99 19.41C11.99 21.4 13.16 22.93 14.82 23.59C15.25 23.8 15.74 23.92 16.25 23.92H31.58C31.71 23.92 31.84 23.92 31.96 23.9C34.46 23.66 36.42 21.56 36.42 18.99Z" fill="white"/>
<path d="M45.43 32.75C45.43 31.31 44.26 30.14 42.82 30.14C42.62 30.14 42.42 30.16 42.24 30.21C42.12 28.69 40.85 27.49 39.29 27.49C38.16 27.49 37.18 28.12 36.68 29.05C36.43 28.91 36.15 28.83 35.84 28.83C34.88 28.83 34.11 29.61 34.11 30.56C34.11 30.61 34.11 30.66 34.11 30.71C33.16 31.03 32.48 31.92 32.48 32.97C32.48 34.02 33.1 34.83 33.98 35.19C34.21 35.3 34.47 35.36 34.74 35.36H42.86C42.93 35.36 43 35.36 43.06 35.35C44.39 35.22 45.42 34.11 45.42 32.75H45.43Z" fill="white"/>
</g>
<defs>
<linearGradient id="paint0_linear_621_12539" x1="48.5" y1="43" x2="48.5" y2="0" gradientUnits="userSpaceOnUse">
<stop stop-color="#00CCFF"/>
<stop offset="0.7" stop-color="#0085DB"/>
<stop offset="1" stop-color="#0066CC"/>
</linearGradient>
<clipPath id="clip0_621_12539">
<rect width="97" height="43" fill="white"/>
</clipPath>
</defs>
</svg>
